Patient4_TMGait_0pt3_03_right_09_EMG.mot
version=1
nRows=23
nColumns=33
inDegrees=no
endheader
time	1LAddLong	2LGlutMax	3LGlutMed	4LIliopsoas	5LSemiMemb	6LBicFemLong	7LRecFem	8LVastMed	9LVastLat	10LGasMed	11LTibAnt	12lTibPost	13LPeroneusLong	14LSol	15LExtDigLong	16LFlexDigLong	17RAddLong	18RGlutMax	19RGlutMed	20RIliopsoas	21RSemiMemb	22RBicFemLong	23RRecFem	24RVastMed	25RVastLat	26RGasMed	27RTibAnt	28RTibPost	29RPeroneusLong	30RSol	31RExtDigLong	32RFlexDigLong
18.375	0.007629	-0.039368	-0.001984	-0.01236	0.011444	0.10788	0.053101	0.000153	-0.006409	-0.005035	0.020752	0.010223	-0.004883	-0.00885	0.046387	0.029602	-0.041199	-0.051575	-0.030975	0.073547	0.10101	-0.054779	-0.06424	-0.041504	-0.079651	-0.015106	0.043488	-0.001678	-0.006866	-0.11993	0.001984	-0.010681
18.376	0.011292	-0.052948	-0.009155	-0.003052	0.054626	0.047913	0.057678	-0.010834	-0.027771	-0.006256	0.05249	0.007935	0.00946	-0.007019	0.031281	0.023651	-0.029449	-0.047455	-0.12802	0.038452	0.009918	-0.065613	-0.007324	-0.041656	-0.12848	-0.019073	0.032806	-0.011292	-0.010071	-0.11337	0.00061	-0.011902
18.377	-0.003052	-0.037537	0.002136	-0.006409	0.063019	-0.020294	0.029297	-0.001221	-0.039215	0.007172	0.083618	0.008545	-0.005951	-0.010071	0.000763	0.016327	-0.019073	-0.11307	-0.12146	-0.00824	0.023499	-0.066071	-0.06424	-0.001526	-0.11231	-0.01358	0.055542	-0.003052	-0.018158	-0.15595	0.000305	-0.012817
18.378	-0.016327	-0.017548	0.009003	0.008698	0.014648	-0.10498	-0.038147	-0.002441	-0.055389	0.007324	0.095978	0.000916	-0.010681	-0.022583	0.013428	0.00946	-0.01236	-0.14114	0.021973	0.00061	0.014954	-0.038757	-0.16388	0.09491	-0.012665	-0.003662	0.054016	-0.001678	-0.021973	-0.13702	0.002136	-0.015259
18.379	-0.027771	0.065613	0.010681	0.009308	-0.023804	-0.092163	-0.039368	0.004578	-0.063782	0.003357	0.13519	0.014038	-0.021667	0.010986	-0.075836	0.015106	0.003052	-0.12833	0.18372	-0.007019	-0.085449	0.016022	-0.32852	0.13016	0.17502	-0.002747	0.054321	-0.006256	-0.043488	-0.1088	0.000916	-0.010681
18.38	-0.028229	0.060272	0.027618	0.009766	-0.078888	-0.14389	-0.021515	0.003357	-0.021973	-0.007629	0.13397	-0.001221	0.010223	0.005188	0.11124	0.025177	0.006866	-0.17075	0.42755	-0.040588	-0.16235	0.041809	-0.22034	0.12619	0.12314	0.000153	0.036011	-0.011139	-0.034485	-0.074158	0.003357	-0.010834
18.381	0.001984	0.078583	0.055389	0.00885	-0.063171	-0.11627	0.008087	0.002594	-0.002899	-0.009918	0.12116	0.010223	0.03067	0.038605	0.50323	0.016479	0.003815	-0.19058	0.5101	-0.036163	-0.022583	0.001678	-0.074463	0.041046	0.021667	0.000153	0.022278	-0.007172	-0.008392	-0.009613	0.000153	-0.019836
18.382	0.009308	0.004883	0.055389	0.015106	-0.026855	-0.020294	0.015411	0.004272	-0.016785	-0.003967	0.098877	0.002441	0.052643	0.050049	-0.058441	0.012054	-0.00061	-0.10712	0.16892	0.080414	0.25864	-0.11414	0.020142	0.015869	-0.047455	0.000305	0.02594	-0.005188	-0.04425	-0.005188	0.000305	-0.026245
18.383	0.004272	-0.06012	0.05249	0.014801	0.059052	0.046692	0.037994	0.012207	0.018616	-0.033722	0.071716	0.01236	0.095062	0.067444	-0.29877	0.022278	0.014038	-0.103	-0.29098	0.063324	0.20798	-0.10529	0.00473	0.02655	-0.055084	-0.011902	0.020752	-0.004883	-0.034485	-0.025482	0.002594	-0.019073
18.384	-0.005646	-0.10269	0.040131	-0.001678	0.032959	0.042419	0.026093	0.007324	0.00061	0.004425	-0.21423	0.016479	0.076294	0.087891	0.062256	0.012817	0.015106	-0.11566	-0.58395	0.013275	-0.079651	-0.012207	-0.010071	0.032043	-0.049896	-0.025635	0.019226	-0.003815	0.014801	-0.069733	-0.002136	-0.015717
18.385	-0.01236	-0.10452	0.028381	0.009155	-0.079346	-0.088654	-0.010834	0.006561	-0.020599	0.002747	-0.18936	0.013275	0.041504	0.070343	0.063934	0.003357	0.020294	-0.091553	-0.29877	-0.014496	-0.086212	-0.019684	0.024872	-0.019226	-0.05127	-0.046997	0.039063	-0.004272	0.030212	-0.087128	0.000916	-0.009003
18.386	-0.001526	-0.028076	-0.013275	0.007782	-0.10086	0.02594	-0.044861	0.004578	0.012665	0.004425	-0.088043	0.015411	0.017242	0.062408	-0.016174	0.007629	0.024567	-0.096741	0.39642	0.029755	-0.12192	0.035706	0.028534	-0.039215	0.074005	-0.054932	0.029755	-0.00061	0.097809	-0.001984	0.001373	-0.009308
18.387	0.016937	0.10574	-0.015869	-0.009308	-0.12268	0.18692	-0.03418	0.011292	0.030975	0.019989	-0.168	0.010834	0.02182	0.041962	-0.099792	-0.00473	0.00824	-0.058136	0.27725	0.020752	-0.066223	0.076904	0.073242	-0.042725	0.13809	-0.033417	0.078888	-0.007477	0.009766	0.14038	0	-0.011292
18.388	0.008545	0.12329	0.034332	-0.006409	-0.13031	0.23041	0.042725	0.007629	0.13931	-0.015106	-0.086212	0.00412	0.031738	0.050964	-0.066223	0.003204	0.019073	-0.066986	-0.168	-0.023499	0.1648	0.033722	0.18265	-0.11429	0.052185	0.025024	0.098114	-0.004272	-0.031128	0.14923	0.000916	-0.005646
18.389	0.021667	0.093842	0.067749	0.009308	-0.062866	0.14221	0.085297	0.009308	0.20432	-0.015259	-0.054626	0.010071	0.028534	0.057831	-0.028534	-0.011292	0.00946	-0.10742	0.068207	-0.066376	0.057068	0.082245	0.17639	-0.19211	-0.092773	0.038605	0.14343	-0.006866	-0.066986	0.14038	-0.002136	-0.005951
18.39	0.03891	0.13809	0.002747	0.020752	0.11322	0.077972	0.071716	-0.00061	0.14358	-0.033417	-0.082703	0.00824	0.0354	0.11169	-0.046234	-0.009003	-0.020752	-0.034332	0.14297	-0.11063	-0.14358	0.090027	0.050201	-0.16342	-0.12024	0.03479	0.17777	-0.007935	-0.072327	0.17563	-0.004425	-0.009918
18.391	0.036011	0.11032	-0.02121	0.013275	0.18417	0.077515	0.031281	-0.00412	0.026855	-0.037079	-0.077209	0.005798	0.018921	0.089722	-0.057526	-0.011749	-0.029907	-0.080109	0.16434	-0.098877	-0.15198	0.083313	-0.20004	-0.092163	-0.082245	0.015869	0.13092	-0.002594	0.046844	0.09613	0.005798	-0.004883
18.392	0.016785	0.059052	-0.077057	0.008392	0.11917	0.065613	0.002899	-0.003357	-0.032654	-0.027466	-0.040283	0.00412	-0.012817	0.059814	-0.033569	-0.014343	-0.028534	-0.11276	-0.05127	-0.056763	0.34424	0.054779	-0.42541	0.005341	-0.057373	0.011902	-0.080109	-0.007782	0.10925	-0.063019	0	-0.010223
18.393	0.012512	0.01297	-0.090485	-0.009613	0.065765	0.03479	-0.027771	0.012512	-0.04715	-0.028381	-0.040436	0.003052	-0.030365	0.037537	-0.023346	-0.020294	-0.010223	-0.12955	-0.03006	0.079041	0.33188	0.046539	-0.439	0.034332	0.055542	0.004272	-0.19211	-0.005035	0.10941	-0.091858	0.000305	-0.010071
18.394	0.00946	0.005798	-0.029907	0.00351	0.02243	-0.23285	-0.037231	0.018311	0.050964	-0.039063	-0.033722	-0.002289	-0.018158	0.027008	0.005646	-0.025482	0.005188	-0.084534	0.025787	0.030365	0.13733	0.022888	-0.31708	0.14175	0.22949	-0.001831	-0.12787	-0.005646	0.071259	-0.054779	-0.001068	-0.00412
18.395	0.017242	-0.001068	-0.031281	-0.005188	0.028381	-0.41428	0.011597	0.020447	0.17822	-0.017548	-0.018463	-0.006256	-0.02182	0.003204	0.002747	-0.022583	0.019226	-0.057678	-0.023346	-0.036621	0.065155	0.034637	0.041199	0.070343	0.15747	-0.002136	-0.017548	-0.007019	0.019989	-0.062561	0.002289	-0.01236
18.396	0.012054	0.032043	-0.056763	-0.014648	0.032806	-0.34698	0.034485	0.008545	0.30991	-0.042572	-0.014648	-0.00351	-0.024414	0.03067	0.0177	-0.030518	0.031128	-0.020752	0.029297	-0.020752	0.018921	0.047302	0.12985	0.00473	0.091705	-0.002441	0.073547	-0.006409	0.001373	-0.032349	0.001373	-0.017395
18.397	0.012512	-0.004578	-0.061188	-0.007324	0.032043	-0.17319	0.06424	0.001221	0.37048	-0.072327	-0.028381	-0.004578	-0.034027	0.041046	0.024872	-0.042419	0.015106	0.007782	0.072937	0.010223	0.014191	0.069733	0.075073	0.030212	0.08316	-0.001526	0.11093	-0.005798	0.014038	-0.061035	0.001373	-0.016632
